# xmcd
#
# Track frame offsets: 
#        150
#        30962
#        57395
#        83144
#        105245
#        125003
#        151428
#        172861
#        196196
#        217549
#        242054
#
# Disc length: 3613 seconds
#
# Revision: 0
# Processed by: cddbd v1.5.2PL0 Copyright (c) Steve Scherf et al.
# Submitted via: ExactAudioCopy v1.3
#
DISCID=7c0e1b0b
DTITLE=Dana Gillespie - Mirrors Of Love
DYEAR=2002
DGENRE=Spiritual, Bhajans
TTITLE0=Mirrors Of Love
TTITLE1=Single Day
TTITLE2=Secret Arrow Of Love
TTITLE3=Peace Of Mind
TTITLE4=Heartache
TTITLE5=A Perfect Love
TTITLE6=More Than A Mothers Love
TTITLE7=All Is One
TTITLE8=Between The Two
TTITLE9=Master Of The Show
TTITLE10=Lead Me
EXTD=
EXTT0=
EXTT1=
EXTT2=
EXTT3=
EXTT4=
EXTT5=
EXTT6=
EXTT7=
EXTT8=
EXTT9=
EXTT10=
PLAYORDER=
